<svg width="80" height="80" viewBox="0 0 80 80" fill="none" xmlns="http://www.w3.org/2000/svg">
<g clip-path="url(#clip0_44_159)">
<path d="M45 32.5H35C34.337 32.5 33.7011 32.7634 33.2322 33.2322C32.7634 33.7011 32.5 34.337 32.5 35V45C32.5 45.663 32.7634 46.2989 33.2322 46.7678C33.7011 47.2366 34.337 47.5 35 47.5H45C45.663 47.5 46.2989 47.2366 46.7678 46.7678C47.2366 46.2989 47.5 45.663 47.5 45V35C47.5 34.337 47.2366 33.7011 46.7678 33.2322C46.2989 32.7634 45.663 32.5 45 32.5ZM42.5 42.5H37.5V37.5H42.5V42.5Z" fill="white"/>
<path d="M77.5 15C78.163 15 78.7989 14.7366 79.2678 14.2678C79.7366 13.7989 80 13.163 80 12.5V2.5C80 1.83696 79.7366 1.20107 79.2678 0.732233C78.7989 0.263392 78.163 0 77.5 0L67.5 0C66.837 0 66.2011 0.263392 65.7322 0.732233C65.2634 1.20107 65 1.83696 65 2.5V5H47.5V2.5C47.5 1.83696 47.2366 1.20107 46.7678 0.732233C46.2989 0.263392 45.663 0 45 0L35 0C34.337 0 33.7011 0.263392 33.2322 0.732233C32.7634 1.20107 32.5 1.83696 32.5 2.5V5H15V2.5C15 1.83696 14.7366 1.20107 14.2678 0.732233C13.7989 0.263392 13.163 0 12.5 0L2.5 0C1.83696 0 1.20107 0.263392 0.732233 0.732233C0.263392 1.20107 0 1.83696 0 2.5L0 12.5C0 13.163 0.263392 13.7989 0.732233 14.2678C1.20107 14.7366 1.83696 15 2.5 15H5V32.5H2.5C1.83696 32.5 1.20107 32.7634 0.732233 33.2322C0.263392 33.7011 0 34.337 0 35L0 45C0 45.663 0.263392 46.2989 0.732233 46.7678C1.20107 47.2366 1.83696 47.5 2.5 47.5H5V65H2.5C1.83696 65 1.20107 65.2634 0.732233 65.7322C0.263392 66.2011 0 66.837 0 67.5L0 77.5C0 78.163 0.263392 78.7989 0.732233 79.2678C1.20107 79.7366 1.83696 80 2.5 80H12.5C13.163 80 13.7989 79.7366 14.2678 79.2678C14.7366 78.7989 15 78.163 15 77.5V75H32.5V77.5C32.5 78.163 32.7634 78.7989 33.2322 79.2678C33.7011 79.7366 34.337 80 35 80H45C45.663 80 46.2989 79.7366 46.7678 79.2678C47.2366 78.7989 47.5 78.163 47.5 77.5V75H65V77.5C65 78.163 65.2634 78.7989 65.7322 79.2678C66.2011 79.7366 66.837 80 67.5 80H77.5C78.163 80 78.7989 79.7366 79.2678 79.2678C79.7366 78.7989 80 78.163 80 77.5V67.5C80 66.837 79.7366 66.2011 79.2678 65.7322C78.7989 65.2634 78.163 65 77.5 65H75V47.5H77.5C78.163 47.5 78.7989 47.2366 79.2678 46.7678C79.7366 46.2989 80 45.663 80 45V35C80 34.337 79.7366 33.7011 79.2678 33.2322C78.7989 32.7634 78.163 32.5 77.5 32.5H75V15H77.5ZM37.5 5H42.5V10H37.5V5ZM5 5H10V10H5V5ZM5 37.5H10V42.5H5V37.5ZM10 75H5V70H10V75ZM42.5 75H37.5V70H42.5V75ZM65 67.5V70H47.5V67.5C47.5 66.837 47.2366 66.2011 46.7678 65.7322C46.2989 65.2634 45.663 65 45 65H35C34.337 65 33.7011 65.2634 33.2322 65.7322C32.7634 66.2011 32.5 66.837 32.5 67.5V70H15V67.5C15 66.837 14.7366 66.2011 14.2678 65.7322C13.7989 65.2634 13.163 65 12.5 65H10V47.5H12.5C13.163 47.5 13.7989 47.2366 14.2678 46.7678C14.7366 46.2989 15 45.663 15 45V35C15 34.337 14.7366 33.7011 14.2678 33.2322C13.7989 32.7634 13.163 32.5 12.5 32.5H10V15H12.5C13.163 15 13.7989 14.7366 14.2678 14.2678C14.7366 13.7989 15 13.163 15 12.5V10H32.5V12.5C32.5 13.163 32.7634 13.7989 33.2322 14.2678C33.7011 14.7366 34.337 15 35 15H45C45.663 15 46.2989 14.7366 46.7678 14.2678C47.2366 13.7989 47.5 13.163 47.5 12.5V10H65V12.5C65 13.163 65.2634 13.7989 65.7322 14.2678C66.2011 14.7366 66.837 15 67.5 15H70V32.5H67.5C66.837 32.5 66.2011 32.7634 65.7322 33.2322C65.2634 33.7011 65 34.337 65 35V45C65 45.663 65.2634 46.2989 65.7322 46.7678C66.2011 47.2366 66.837 47.5 67.5 47.5H70V65H67.5C66.837 65 66.2011 65.2634 65.7322 65.7322C65.2634 66.2011 65 66.837 65 67.5ZM75 75H70V70H75V75ZM75 42.5H70V37.5H75V42.5ZM70 10V5H75V10H70Z" fill="white"/>
</g>
<defs>
<clipPath id="clip0_44_159">
<rect width="80" height="80" fill="white"/>
</clipPath>
</defs>
</svg>
