<svg width="76" height="73" viewBox="0 0 76 73" fill="none" xmlns="http://www.w3.org/2000/svg">
<path d="M1.75 45C1.06 45 0.5 44.44 0.5 43.75V3.75C0.5 1.6825 2.1825 0 4.25 0H71.75C73.8175 0 75.5 1.6825 75.5 3.75V7.5C75.5 8.19 74.94 8.75 74.25 8.75C73.56 8.75 73 8.19 73 7.5V3.75C73 3.0625 72.4375 2.5 71.75 2.5H4.25C3.5625 2.5 3 3.0625 3 3.75V43.75C3 44.44 2.44 45 1.75 45Z" fill="white"/>
<path d="M38 72.5H24.25C23.56 72.5 23 71.94 23 71.25C23 70.56 23.56 70 24.25 70H26.75C28.8175 70 30.5 68.3175 30.5 66.25V60C30.5 59.31 31.06 58.75 31.75 58.75C32.44 58.75 33 59.31 33 60V66.25C33 67.6575 32.5325 68.955 31.7475 70H38C38.69 70 39.25 70.56 39.25 71.25C39.25 71.94 38.69 72.5 38 72.5Z" fill="white"/>
<path d="M36.75 60H4.25C2.1825 60 0.5 58.3175 0.5 56.25V48.75C0.5 48.06 1.06 47.5 1.75 47.5H36.75C37.44 47.5 38 48.06 38 48.75C38 49.44 37.44 50 36.75 50H3V56.25C3 56.9375 3.5625 57.5 4.25 57.5H36.75C37.44 57.5 38 58.06 38 58.75C38 59.44 37.44 60 36.75 60Z" fill="white"/>
<path d="M51.75 17.5H64.25C64.94 17.5 65.5 16.94 65.5 16.25C65.5 15.56 64.94 15 64.25 15H51.75C51.06 15 50.5 15.56 50.5 16.25C50.5 16.94 51.06 17.5 51.75 17.5Z" fill="white"/>
<path d="M56.75 67.5H59.25C59.94 67.5 60.5 66.94 60.5 66.25C60.5 65.56 59.94 65 59.25 65H56.75C56.06 65 55.5 65.56 55.5 66.25C55.5 66.94 56.06 67.5 56.75 67.5Z" fill="white"/>
<path d="M69.25 72.5H46.75C43.3025 72.5 40.5 69.6975 40.5 66.25V16.25C40.5 12.8025 43.3025 10 46.75 10H69.25C72.6975 10 75.5 12.8025 75.5 16.25V66.25C75.5 69.6975 72.6975 72.5 69.25 72.5ZM46.75 12.5C44.6825 12.5 43 14.1825 43 16.25V66.25C43 68.3175 44.6825 70 46.75 70H69.25C71.3175 70 73 68.3175 73 66.25V16.25C73 14.1825 71.3175 12.5 69.25 12.5H46.75Z" fill="white"/>
</svg>
