<svg width="73" height="73" viewBox="0 0 73 73" fill="none" xmlns="http://www.w3.org/2000/svg">
<path d="M36.2476 17.905C29.4101 17.905 22.5751 17.1175 15.9401 15.5625C15.2676 15.405 14.8501 14.735 15.0076 14.06C15.1651 13.39 15.8201 12.9725 16.5126 13.1275C30.9951 16.5225 46.3876 16.095 60.7076 11.8825C61.3826 11.6925 62.0676 12.065 62.2601 12.7275C62.4551 13.3925 62.0776 14.085 61.4151 14.28C53.2376 16.685 44.7701 17.905 36.2476 17.905Z" fill="white"/>
<path d="M61.0601 60.905C60.9426 60.905 60.8251 60.8875 60.7051 60.8525C44.8076 56.175 27.6876 56.175 11.7901 60.8525C11.1176 61.04 10.4301 60.67 10.2376 60.0075C10.0426 59.3425 10.4201 58.65 11.0826 58.455C27.4451 53.64 45.0526 53.64 61.4151 58.455C62.0776 58.65 62.4551 59.3425 62.2601 60.0075C62.1001 60.555 61.6001 60.905 61.0601 60.905Z" fill="white"/>
<path d="M34.7201 71.5976C34.4751 71.5976 34.2326 71.5276 34.0151 71.3801C22.3476 63.4176 15.3826 50.3251 15.3826 36.3576C15.3826 25.0401 19.8351 14.3876 27.9251 6.36258C28.4176 5.87008 29.2101 5.88008 29.6926 6.36758C30.1801 6.85758 30.1751 7.65008 29.6876 8.13508C22.0751 15.6876 17.8826 25.7101 17.8826 36.3576C17.8826 49.4976 24.4401 61.8201 35.4276 69.3151C35.9976 69.7026 36.1426 70.4826 35.7551 71.0526C35.5101 71.4076 35.1176 71.5976 34.7201 71.5976Z" fill="white"/>
<path d="M37.8825 71.5975C37.485 71.5975 37.0925 71.4075 36.85 71.0525C36.4625 70.48 36.6075 69.7025 37.1775 69.315C48.165 61.82 54.7225 49.4975 54.7225 36.3575C54.7225 23.2175 48.165 10.895 37.1775 3.40002C36.6075 3.01252 36.4625 2.23252 36.85 1.66252C37.24 1.09252 38.02 0.95252 38.5875 1.33502C50.255 9.29752 57.22 22.39 57.22 36.3575C57.22 50.325 50.255 63.4175 38.5875 71.38C38.3725 71.525 38.1275 71.5975 37.8825 71.5975Z" fill="white"/>
<path d="M36.2476 71.225C35.5576 71.225 34.9976 70.665 34.9976 69.975V2.73999C34.9976 2.04999 35.5576 1.48999 36.2476 1.48999C36.9376 1.48999 37.4976 2.04999 37.4976 2.73999V69.975C37.4976 70.6675 36.9376 71.225 36.2476 71.225Z" fill="white"/>
<path d="M71.1151 37.6075H6.38013C5.69013 37.6075 5.13013 37.0475 5.13013 36.3575C5.13013 35.6675 5.69013 35.1075 6.38013 35.1075H71.1176C71.8076 35.1075 72.3676 35.6675 72.3676 36.3575C72.3676 37.0475 71.8076 37.6075 71.1151 37.6075Z" fill="white"/>
<path d="M36.2476 72.6075C16.2601 72.6075 -0.00244141 56.345 -0.00244141 36.3575C-0.00244141 27.555 3.19256 19.06 8.99756 12.445C9.45256 11.925 10.2401 11.875 10.7626 12.33C11.2801 12.785 11.3301 13.575 10.8776 14.095C5.47506 20.2525 2.49756 28.16 2.49756 36.3575C2.49756 54.9675 17.6376 70.1075 36.2476 70.1075C54.8576 70.1075 69.9976 54.9675 69.9976 36.3575C69.9976 17.7475 54.8576 2.60754 36.2476 2.60754C28.5526 2.60754 21.3076 5.12754 15.3001 9.89504C14.7601 10.325 13.9751 10.2375 13.5451 9.69254C13.1151 9.15254 13.2051 8.36754 13.7476 7.93754C20.2001 2.81504 27.9801 0.107544 36.2476 0.107544C56.2351 0.107544 72.4976 16.37 72.4976 36.3575C72.4976 56.345 56.2351 72.6075 36.2476 72.6075Z" fill="white"/>
</svg>
