<svg width="41" height="41" viewBox="0 0 41 41" fill="none" xmlns="http://www.w3.org/2000/svg">
<path d="M39.4301 6.30993V35.3899C39.4222 36.6119 38.9326 37.7814 38.0676 38.6445C37.2026 39.5076 36.0321 39.9947 34.8101 39.9999H6.2201C4.99642 39.9947 3.82436 39.5062 2.95908 38.6409C2.0938 37.7757 1.60536 36.6036 1.6001 35.3799V6.30993C1.60274 5.08279 2.09139 3.90667 2.95911 3.03895C3.82683 2.17122 5.00296 1.68257 6.2301 1.67993H34.8101" stroke="url(#paint0_linear_46_49)" stroke-width="2" stroke-linecap="round" stroke-linejoin="round"/>
<path d="M39.4801 3.97998C40.0324 3.97998 40.4801 3.53227 40.4801 2.97998C40.4801 2.4277 40.0324 1.97998 39.4801 1.97998C38.9278 1.97998 38.4801 2.4277 38.4801 2.97998C38.4801 3.53227 38.9278 3.97998 39.4801 3.97998Z" fill="url(#paint1_linear_46_49)"/>
<path d="M17.9202 17.08H22.9202V18.72H23.0202C23.6602 17.72 24.7202 16.72 27.3302 16.72C30.5602 16.72 32.9702 18.85 32.9702 23.49V32.84H28.0702V24.11C28.0702 22.11 27.3602 20.69 25.5902 20.69C25.0352 20.6945 24.496 20.8751 24.0503 21.2058C23.6046 21.5365 23.2754 22.0001 23.1102 22.53C23.0021 22.927 22.9648 23.34 23.0002 23.75V32.85H18.1002V21" stroke="url(#paint2_linear_46_49)" stroke-width="2" stroke-linecap="round" stroke-linejoin="round"/>
<path d="M14.2001 21.0798V32.9798H9.31006V17.0798H14.2001" stroke="url(#paint3_linear_46_49)" stroke-width="2" stroke-linecap="round" stroke-linejoin="round"/>
<path d="M14.5202 11.75C14.5241 12.2987 14.365 12.8362 14.0631 13.2943C13.7611 13.7525 13.3299 14.1106 12.8241 14.3234C12.3183 14.5361 11.7608 14.5938 11.2221 14.4892C10.6835 14.3846 10.188 14.1224 9.79865 13.7358C9.40926 13.3492 9.14344 12.8557 9.03493 12.3178C8.92642 11.7799 8.9801 11.222 9.18915 10.7146C9.3982 10.2073 9.75322 9.77352 10.2092 9.46825C10.6651 9.16299 11.2015 9.00001 11.7502 9" stroke="url(#paint4_linear_46_49)" stroke-width="2" stroke-linecap="round" stroke-linejoin="round"/>
<defs>
<linearGradient id="paint0_linear_46_49" x1="20.5151" y1="1.67993" x2="20.5151" y2="39.9999" gradientUnits="userSpaceOnUse">
<stop stop-color="#FFA585"/>
<stop offset="1" stop-color="#FFEDA0"/>
</linearGradient>
<linearGradient id="paint1_linear_46_49" x1="39.4801" y1="1.97998" x2="39.4801" y2="3.97998" gradientUnits="userSpaceOnUse">
<stop stop-color="#FFA585"/>
<stop offset="1" stop-color="#FFEDA0"/>
</linearGradient>
<linearGradient id="paint2_linear_46_49" x1="25.4452" y1="16.72" x2="25.4452" y2="32.85" gradientUnits="userSpaceOnUse">
<stop stop-color="#FFA585"/>
<stop offset="1" stop-color="#FFEDA0"/>
</linearGradient>
<linearGradient id="paint3_linear_46_49" x1="11.7551" y1="17.0798" x2="11.7551" y2="32.9798" gradientUnits="userSpaceOnUse">
<stop stop-color="#FFA585"/>
<stop offset="1" stop-color="#FFEDA0"/>
</linearGradient>
<linearGradient id="paint4_linear_46_49" x1="11.7502" y1="9" x2="11.7502" y2="14.54" gradientUnits="userSpaceOnUse">
<stop stop-color="#FFA585"/>
<stop offset="1" stop-color="#FFEDA0"/>
</linearGradient>
</defs>
</svg>
