<svg width="41" height="42" viewBox="0 0 41 42" fill="none" xmlns="http://www.w3.org/2000/svg">
<path d="M39.3901 6.46008V35.5401C39.3874 36.7655 38.9002 37.9401 38.0346 38.8075C37.169 39.675 35.9955 40.1648 34.7701 40.1701H6.18006C4.95638 40.1648 3.78432 39.6764 2.91904 38.8111C2.05376 37.9458 1.56532 36.7738 1.56006 35.5501V6.46008C1.56269 5.23466 2.04996 4.06005 2.91553 3.19261C3.78109 2.32517 4.95465 1.83536 6.18006 1.83008H34.7701" stroke="url(#paint0_linear_46_56)" stroke-width="2" stroke-linecap="round" stroke-linejoin="round"/>
<path d="M39.4401 4.13013C39.9923 4.13013 40.4401 3.68241 40.4401 3.13013C40.4401 2.57784 39.9923 2.13013 39.4401 2.13013C38.8878 2.13013 38.4401 2.57784 38.4401 3.13013C38.4401 3.68241 38.8878 4.13013 39.4401 4.13013Z" fill="url(#paint1_linear_46_56)"/>
<path d="M19.3 17.3101L17.35 15.3601L16.48 16.2301C15.9048 16.8058 15.5817 17.5863 15.5817 18.4001C15.5817 19.2139 15.9048 19.9944 16.48 20.5701L21.26 25.3501C21.8357 25.9253 22.6162 26.2485 23.43 26.2485C24.2438 26.2485 25.0244 25.9253 25.6 25.3501L26.47 24.4801L25 23.0001" stroke="url(#paint2_linear_46_56)" stroke-width="2" stroke-linecap="round" stroke-linejoin="round"/>
<path d="M32.4001 21.0001C32.4004 23.0004 31.8743 24.9655 30.8748 26.6981C29.8753 28.4308 28.4375 29.8699 26.7058 30.8711C24.9741 31.8722 23.0094 32.4001 21.0091 32.4016C19.0089 32.4032 17.0434 31.8785 15.3101 30.8801L12.7201 31.5701L9.6001 32.4001L10.4301 29.2801L11.1201 26.6901C10.2481 25.1753 9.73611 23.4802 9.6237 21.7359C9.51129 19.9917 9.80147 18.2449 10.4718 16.6307C11.1422 15.0164 12.1747 13.578 13.4897 12.4264C14.8046 11.2749 16.3668 10.4412 18.0553 9.98968C19.7439 9.53818 21.5137 9.48101 23.2279 9.82258C24.9421 10.1641 26.5547 10.8953 27.9413 11.9596C29.3278 13.0238 30.4511 14.3926 31.2242 15.9602C31.9974 17.5278 32.3997 19.2522 32.4001 21.0001Z" stroke="url(#paint3_linear_46_56)" stroke-width="2" stroke-linecap="round" stroke-linejoin="round"/>
<defs>
<linearGradient id="paint0_linear_46_56" x1="20.4751" y1="1.83008" x2="20.4751" y2="40.1701" gradientUnits="userSpaceOnUse">
<stop stop-color="#FFA585"/>
<stop offset="1" stop-color="#FFEDA0"/>
</linearGradient>
<linearGradient id="paint1_linear_46_56" x1="39.4401" y1="2.13013" x2="39.4401" y2="4.13013" gradientUnits="userSpaceOnUse">
<stop stop-color="#FFA585"/>
<stop offset="1" stop-color="#FFEDA0"/>
</linearGradient>
<linearGradient id="paint2_linear_46_56" x1="21.0258" y1="15.3601" x2="21.0258" y2="26.2485" gradientUnits="userSpaceOnUse">
<stop stop-color="#FFA585"/>
<stop offset="1" stop-color="#FFEDA0"/>
</linearGradient>
<linearGradient id="paint3_linear_46_56" x1="21.0001" y1="9.60278" x2="21.0001" y2="32.4016" gradientUnits="userSpaceOnUse">
<stop stop-color="#FFA585"/>
<stop offset="1" stop-color="#FFEDA0"/>
</linearGradient>
</defs>
</svg>
